<?xml version="1.0" standalone="no"?>
<!DOCTYPE svg PUBLIC "-//W3C//DTD SVG 20010904//EN"
 "http://www.w3.org/TR/2001/REC-SVG-20010904/DTD/svg10.dtd">
<svg version="1.0" xmlns="http://www.w3.org/2000/svg"
 width="1200.000000pt" height="547.000000pt" viewBox="0 0 1200.000000 547.000000"
 preserveAspectRatio="xMidYMid meet">
<metadata>
Created by potrace 1.15, written by Peter Selinger 2001-2017
</metadata>
<g transform="translate(0.000000,547.000000) scale(0.100000,-0.100000)"
fill="#000000" stroke="none">
<path d="M4078 4862 l-38 -3 0 -1949 c0 -1726 2 -1949 15 -1954 12 -4 2672 -9
3753 -6 l152 0 -2 1958 -3 1957 -1920 0 c-1056 0 -1937 -1 -1957 -3z m1977
-932 c89 -252 204 -569 218 -602 l16 -38 457 -2 456 -3 -288 -230 c-158 -126
-321 -256 -361 -288 -44 -35 -73 -65 -73 -77 0 -10 20 -83 45 -162 25 -78 61
-195 80 -258 19 -63 58 -187 85 -274 27 -88 48 -161 47 -163 -3 -3 -302 196
-636 424 -104 71 -128 83 -145 75 -19 -9 -233 -155 -459 -313 -173 -120 -272
-189 -274 -189 -1 0 -1 6 2 13 65 208 111 364 170 567 20 69 47 161 60 204 23
74 23 81 8 98 -8 10 -172 143 -364 295 l-347 278 454 3 455 2 20 46 c10 26 30
79 44 118 13 39 45 130 70 201 25 72 71 204 102 295 82 243 71 227 100 145 13
-38 39 -113 58 -165z"/>
</g>
</svg>
